# xmcd CD database file
#
# Track frame offsets:
#	150
#	4100
#	27165
#	46240
#	63187
#	84747
#	113092
#	139922
#	162595
#	188127
#	214692
#	238585
#	253390
#	281497
#	301670
#	329577
#
# Disc length: 4757 seconds
#
# Revision: 0
# Processed by: cddbd v1.5.1PL0 Copyright (c) Steve Scherf et al.
# Submitted via: CDex 1.51
#
DISCID=e0129310
DTITLE=浜田真理子 - mariko live 〜こころうた〜　disc 1
DYEAR=2004
DGENRE=Jazz
TTITLE0=The door
TTITLE1=あなたへ
TTITLE2=花笠道中 〜Walking after midnight
TTITLE3=ほのほ
TTITLE4=抱擁
TTITLE5=Love song
TTITLE6=恋ごころ
TTITLE7=Johnny guitar 〜粋な別れ
TTITLE8=ラストダンスは私に
TTITLE9=Only women bleed
TTITLE10=カノン
TTITLE11=The core of you
TTITLE12=朝日のあたる家（朝日楼）
TTITLE13=純愛
TTITLE14=柔
TTITLE15=安来節
EXTD=YEAR: 2004
EXTT0=
EXTT1=
EXTT2=
EXTT3=
EXTT4=
EXTT5=
EXTT6=
EXTT7=
EXTT8=
EXTT9=
EXTT10=
EXTT11=
EXTT12=
EXTT13=
EXTT14=
EXTT15=
PLAYORDER=
